<svg width="52" height="52" viewBox="0 0 52 52" fill="none" xmlns="http://www.w3.org/2000/svg">
<rect width="52" height="52" fill="#191919"/>
<path d="M19.1169 25.763C19.1169 27.7922 17.472 29.4372 15.4427 29.4372C13.4135 29.4372 11.7685 27.7922 11.7685 25.763C11.7685 23.7338 13.4135 22.0888 15.4427 22.0888C17.472 22.0888 19.1169 23.7338 19.1169 25.763Z" fill="url(#paint0_linear_267_63)"/>
<path fill-rule="evenodd" clip-rule="evenodd" d="M24.6283 9.91797C32.2524 9.91797 38.7038 14.6674 40.8564 21.2092C39.3656 19.105 36.8702 17.7257 34.0434 17.7257C29.4777 17.7257 25.7764 21.3241 25.7764 25.763C25.7764 27.1798 26.1535 28.511 26.8154 29.6668H22.6635C23.3299 28.508 23.7097 27.1723 23.7097 25.7504C23.7097 21.3115 20.0085 17.713 15.4427 17.713C12.3212 17.713 9.60371 19.3951 8.19692 21.8778C10.1185 14.9935 16.7468 9.91797 24.6283 9.91797ZM34.0434 33.8003C37.0323 33.8003 39.6508 32.2582 41.1029 29.9476C40.4891 32.2409 39.354 34.3377 37.8244 36.1191L37.9598 36.12L44.8238 42.0843L26.1083 42.0054C25.6205 42.0452 25.127 42.0673 24.6283 42.0673C16.4037 42.0673 9.54375 36.5402 7.97302 29.1984C9.21884 31.7449 11.8018 33.5536 14.8395 33.7666C14.9606 33.7887 15.0855 33.8003 15.2131 33.8003H34.0434ZM19.1169 25.763C19.1169 27.7922 17.472 29.4372 15.4427 29.4372C13.4135 29.4372 11.7685 27.7922 11.7685 25.763C11.7685 23.7338 13.4135 22.0888 15.4427 22.0888C17.472 22.0888 19.1169 23.7338 19.1169 25.763Z" fill="url(#paint1_linear_267_63)"/>
<path fill-rule="evenodd" clip-rule="evenodd" d="M33.8138 29.4372C35.843 29.4372 37.488 27.7922 37.488 25.763C37.488 23.7338 35.843 22.0888 33.8138 22.0888C31.7846 22.0888 30.1396 23.7338 30.1396 25.763C30.1396 27.7922 31.7846 29.4372 33.8138 29.4372Z" fill="url(#paint2_linear_267_63)"/>
<defs>
<linearGradient id="paint0_linear_267_63" x1="25.9998" y1="9.91797" x2="25.9998" y2="42.0843" gradientUnits="userSpaceOnUse">
<stop stop-color="#A2D5C6"/>
<stop offset="1" stop-color="#546F67"/>
</linearGradient>
<linearGradient id="paint1_linear_267_63" x1="25.9998" y1="9.91797" x2="25.9998" y2="42.0843" gradientUnits="userSpaceOnUse">
<stop stop-color="#A2D5C6"/>
<stop offset="1" stop-color="#546F67"/>
</linearGradient>
<linearGradient id="paint2_linear_267_63" x1="25.9998" y1="9.91797" x2="25.9998" y2="42.0843" gradientUnits="userSpaceOnUse">
<stop stop-color="#A2D5C6"/>
<stop offset="1" stop-color="#546F67"/>
</linearGradient>
</defs>
</svg>
