<svg width="500" height="500" viewBox="0 0 500 500" fill="none" xmlns="http://www.w3.org/2000/svg">
<rect width="500" height="500" fill="#191919"/>
<path d="M183.819 247.709C183.819 267.221 168.002 283.038 148.49 283.038C128.978 283.038 113.161 267.221 113.161 247.709C113.161 228.198 128.978 212.38 148.49 212.38C168.002 212.38 183.819 228.198 183.819 247.709Z" fill="url(#paint0_linear_267_62)"/>
<path fill-rule="evenodd" clip-rule="evenodd" d="M236.812 95.3535C310.121 95.3535 372.154 141.021 392.852 203.923C378.518 183.691 354.523 170.427 327.343 170.427C283.441 170.427 247.853 205.028 247.853 247.709C247.853 261.332 251.478 274.132 257.842 285.246H217.921C224.328 274.104 227.98 261.261 227.98 247.588C227.98 204.906 192.391 170.306 148.49 170.306C118.475 170.306 92.3455 186.48 78.8187 210.352C97.2952 144.157 161.029 95.3535 236.812 95.3535ZM327.343 324.991C356.082 324.991 381.26 310.163 395.222 287.946C389.32 309.997 378.406 330.158 363.698 347.288L365 347.296L431 404.645L251.044 403.886C246.353 404.269 241.608 404.481 236.812 404.481C157.73 404.481 91.769 351.336 76.6657 280.742C88.6448 305.228 113.481 322.619 142.689 324.667C143.854 324.88 145.055 324.991 146.282 324.991H327.343ZM183.819 247.709C183.819 267.221 168.002 283.038 148.49 283.038C128.978 283.038 113.161 267.221 113.161 247.709C113.161 228.198 128.978 212.38 148.49 212.38C168.002 212.38 183.819 228.198 183.819 247.709Z" fill="url(#paint1_linear_267_62)"/>
<path fill-rule="evenodd" clip-rule="evenodd" d="M325.135 283.038C344.646 283.038 360.463 267.221 360.463 247.709C360.463 228.198 344.646 212.38 325.135 212.38C305.623 212.38 289.806 228.198 289.806 247.709C289.806 267.221 305.623 283.038 325.135 283.038Z" fill="url(#paint2_linear_267_62)"/>
<defs>
<linearGradient id="paint0_linear_267_62" x1="250" y1="95.3535" x2="250" y2="404.645" gradientUnits="userSpaceOnUse">
<stop stop-color="#A2D5C6"/>
<stop offset="1" stop-color="#546F67"/>
</linearGradient>
<linearGradient id="paint1_linear_267_62" x1="250" y1="95.3535" x2="250" y2="404.645" gradientUnits="userSpaceOnUse">
<stop stop-color="#A2D5C6"/>
<stop offset="1" stop-color="#546F67"/>
</linearGradient>
<linearGradient id="paint2_linear_267_62" x1="250" y1="95.3535" x2="250" y2="404.645" gradientUnits="userSpaceOnUse">
<stop stop-color="#A2D5C6"/>
<stop offset="1" stop-color="#546F67"/>
</linearGradient>
</defs>
</svg>
