<svg width="342" height="119" viewBox="0 0 342 119" fill="none" xmlns="http://www.w3.org/2000/svg">
<rect width="341.973" height="118.037" fill="white"/>
<path d="M50 58.5C50 62.9183 46.4183 66.5 42 66.5C37.5817 66.5 34 62.9183 34 58.5C34 54.0817 37.5817 50.5 42 50.5C46.4183 50.5 50 54.0817 50 58.5Z" fill="url(#paint0_linear_267_77)"/>
<path fill-rule="evenodd" clip-rule="evenodd" d="M62 24C78.6003 24 92.6472 34.3412 97.3342 48.5849C94.0882 44.0034 88.6549 41 82.5 41C72.5589 41 64.5 48.835 64.5 58.5C64.5 61.5848 65.321 64.4833 66.7621 67H57.7221C59.173 64.4769 60 61.5686 60 58.4725C60 48.8076 51.9411 40.9725 42 40.9725C35.2033 40.9725 29.2864 44.6349 26.2234 50.0406C30.4073 35.0512 44.8393 24 62 24ZM82.5 76C89.0079 76 94.7092 72.6422 97.8709 67.6114C96.5345 72.6046 94.063 77.17 90.7324 81.0488L91.0273 81.0508L105.973 94.0371L65.2227 93.8652C64.1605 93.9519 63.0859 94 62 94C44.0922 94 29.1559 81.9656 25.7359 65.98C28.4484 71.5247 34.0724 75.4629 40.6864 75.9266C40.9503 75.9748 41.2222 76 41.5 76H82.5ZM50 58.5C50 62.9183 46.4183 66.5 42 66.5C37.5817 66.5 34 62.9183 34 58.5C34 54.0817 37.5817 50.5 42 50.5C46.4183 50.5 50 54.0817 50 58.5Z" fill="url(#paint1_linear_267_77)"/>
<path fill-rule="evenodd" clip-rule="evenodd" d="M82 66.5C86.4183 66.5 90 62.9183 90 58.5C90 54.0817 86.4183 50.5 82 50.5C77.5817 50.5 74 54.0817 74 58.5C74 62.9183 77.5817 66.5 82 66.5Z" fill="url(#paint2_linear_267_77)"/>
<path d="M126.605 57.127C129.957 57.127 132.878 57.7837 135.366 59.0969C137.854 60.4102 139.79 62.3456 141.172 64.903C142.554 67.4605 143.246 70.5536 143.246 74.1824V94.0371H134.848V85.328H118.259V94.0371H109.964V74.1824C109.964 70.5536 110.656 67.4605 112.038 64.903C113.42 62.3456 115.356 60.4102 117.844 59.0969C120.332 57.7837 123.253 57.127 126.605 57.127ZM134.848 78.5888V73.4048C134.848 70.3981 134.104 68.1344 132.618 66.6137C131.132 65.0585 129.111 64.2809 126.553 64.2809C123.961 64.2809 121.922 65.0585 120.436 66.6137C118.984 68.1344 118.259 70.3981 118.259 73.4048V78.5888H134.848ZM151.535 57.7491H168.02C171.96 57.7491 175.433 58.5094 178.44 60.0301C181.481 61.5161 183.831 63.6243 185.49 66.3545C187.183 69.0848 188.03 72.2643 188.03 75.8931C188.03 79.5219 187.183 82.7014 185.49 85.4317C183.831 88.1619 181.481 90.2873 178.44 91.808C175.433 93.2941 171.96 94.0371 168.02 94.0371H151.535V57.7491ZM167.605 87.1424C171.234 87.1424 174.12 86.1401 176.262 84.1357C178.44 82.0966 179.528 79.3491 179.528 75.8931C179.528 72.4371 178.44 69.7069 176.262 67.7024C174.12 65.6633 171.234 64.6438 167.605 64.6438H159.933V87.1424H167.605ZM194.364 57.7491H210.849C214.788 57.7491 218.262 58.5094 221.268 60.0301C224.31 61.5161 226.66 63.6243 228.319 66.3545C230.012 69.0848 230.859 72.2643 230.859 75.8931C230.859 79.5219 230.012 82.7014 228.319 85.4317C226.66 88.1619 224.31 90.2873 221.268 91.808C218.262 93.2941 214.788 94.0371 210.849 94.0371H194.364V57.7491ZM210.434 87.1424C214.063 87.1424 216.948 86.1401 219.091 84.1357C221.268 82.0966 222.357 79.3491 222.357 75.8931C222.357 72.4371 221.268 69.7069 219.091 67.7024C216.948 65.6633 214.063 64.6438 210.434 64.6438H202.762V87.1424H210.434ZM253.522 57.127C256.874 57.127 259.794 57.7837 262.283 59.0969C264.771 60.4102 266.706 62.3456 268.089 64.903C269.471 67.4605 270.162 70.5536 270.162 74.1824V94.0371H261.764V85.328H245.176V94.0371H236.881V74.1824C236.881 70.5536 237.572 67.4605 238.955 64.903C240.337 62.3456 242.273 60.4102 244.761 59.0969C247.249 57.7837 250.17 57.127 253.522 57.127ZM261.764 78.5888V73.4048C261.764 70.3981 261.021 68.1344 259.535 66.6137C258.049 65.0585 256.027 64.2809 253.47 64.2809C250.878 64.2809 248.839 65.0585 247.353 66.6137C245.901 68.1344 245.176 70.3981 245.176 73.4048V78.5888H261.764ZM278.452 57.7491H294.937C298.877 57.7491 302.35 58.5094 305.357 60.0301C308.398 61.5161 310.748 63.6243 312.407 66.3545C314.1 69.0848 314.947 72.2643 314.947 75.8931C314.947 79.5219 314.1 82.7014 312.407 85.4317C310.748 88.1619 308.398 90.2873 305.357 91.808C302.35 93.2941 298.877 94.0371 294.937 94.0371H278.452V57.7491ZM294.522 87.1424C298.151 87.1424 301.037 86.1401 303.179 84.1357C305.357 82.0966 306.445 79.3491 306.445 75.8931C306.445 72.4371 305.357 69.7069 303.179 67.7024C301.037 65.6633 298.151 64.6438 294.522 64.6438H286.85V87.1424H294.522Z" fill="url(#paint3_linear_267_77)"/>
<path d="M116.783 34.1671C117.959 34.1671 118.878 34.5124 119.541 35.2031C120.203 35.8938 120.535 36.8831 120.535 38.1711V44.0371H119.821V38.1991C119.821 37.0978 119.545 36.2624 118.995 35.6931C118.444 35.1144 117.665 34.8251 116.657 34.8251C115.621 34.8251 114.818 35.1284 114.249 35.7351C113.679 36.3418 113.395 37.2471 113.395 38.4511V44.0371H112.681V34.2371H113.381V36.1271C113.679 35.4738 114.118 34.9838 114.697 34.6571C115.275 34.3304 115.971 34.1671 116.783 34.1671ZM126.496 44.0931C125.806 44.0931 125.18 43.9344 124.62 43.6171C124.07 43.2998 123.636 42.8611 123.318 42.3011C123.001 41.7318 122.842 41.0924 122.842 40.3831C122.842 39.6738 123.001 39.0391 123.318 38.4791C123.636 37.9098 124.07 37.4664 124.62 37.1491C125.18 36.8318 125.806 36.6731 126.496 36.6731C127.187 36.6731 127.808 36.8318 128.358 37.1491C128.918 37.4664 129.357 37.9098 129.674 38.4791C129.992 39.0391 130.15 39.6738 130.15 40.3831C130.15 41.0924 129.992 41.7318 129.674 42.3011C129.357 42.8611 128.918 43.2998 128.358 43.6171C127.808 43.9344 127.187 44.0931 126.496 44.0931ZM126.496 43.4631C127.056 43.4631 127.556 43.3324 127.994 43.0711C128.442 42.8098 128.792 42.4458 129.044 41.9791C129.306 41.5124 129.436 40.9804 129.436 40.3831C129.436 39.7858 129.306 39.2538 129.044 38.7871C128.792 38.3204 128.442 37.9564 127.994 37.6951C127.556 37.4338 127.056 37.3031 126.496 37.3031C125.936 37.3031 125.432 37.4338 124.984 37.6951C124.546 37.9564 124.196 38.3204 123.934 38.7871C123.682 39.2538 123.556 39.7858 123.556 40.3831C123.556 40.9804 123.682 41.5124 123.934 41.9791C124.196 42.4458 124.546 42.8098 124.984 43.0711C125.432 43.3324 125.936 43.4631 126.496 43.4631ZM136.59 38.3251C136.814 37.7931 137.164 37.3871 137.64 37.1071C138.116 36.8178 138.694 36.6731 139.376 36.6731V37.3591L139.208 37.3451C138.396 37.3451 137.761 37.6018 137.304 38.1151C136.846 38.6191 136.618 39.3238 136.618 40.2291V44.0371H135.918V36.7291H136.59V38.3251ZM144.232 43.4631C144.708 43.4631 145.147 43.3791 145.548 43.2111C145.959 43.0338 146.299 42.7771 146.57 42.4411L146.976 42.9031C146.659 43.2951 146.262 43.5938 145.786 43.7991C145.31 43.9951 144.787 44.0931 144.218 44.0931C143.49 44.0931 142.837 43.9344 142.258 43.6171C141.689 43.2998 141.241 42.8611 140.914 42.3011C140.597 41.7411 140.438 41.1018 140.438 40.3831C140.438 39.6644 140.587 39.0251 140.886 38.4651C141.194 37.9051 141.619 37.4664 142.16 37.1491C142.701 36.8318 143.313 36.6731 143.994 36.6731C144.629 36.6731 145.198 36.8224 145.702 37.1211C146.215 37.4104 146.621 37.8164 146.92 38.3391C147.228 38.8524 147.396 39.4311 147.424 40.0751L141.25 41.2791C141.427 41.9511 141.782 42.4831 142.314 42.8751C142.846 43.2671 143.485 43.4631 144.232 43.4631ZM143.994 37.2891C143.443 37.2891 142.949 37.4198 142.51 37.6811C142.071 37.9331 141.731 38.2924 141.488 38.7591C141.245 39.2164 141.124 39.7391 141.124 40.3271C141.124 40.4298 141.133 40.5744 141.152 40.7611L146.724 39.6691C146.659 39.2304 146.505 38.8291 146.262 38.4651C146.019 38.1011 145.702 37.8164 145.31 37.6111C144.918 37.3964 144.479 37.2891 143.994 37.2891ZM153.257 36.6731C153.939 36.6731 154.555 36.8318 155.105 37.1491C155.656 37.4664 156.085 37.9051 156.393 38.4651C156.711 39.0251 156.869 39.6644 156.869 40.3831C156.869 41.1018 156.711 41.7458 156.393 42.3151C156.085 42.8751 155.656 43.3138 155.105 43.6311C154.555 43.9391 153.939 44.0931 153.257 44.0931C152.613 44.0931 152.03 43.9438 151.507 43.6451C150.985 43.3371 150.579 42.9124 150.289 42.3711V46.7531H149.589V36.7291H150.261V38.4511C150.551 37.8911 150.957 37.4571 151.479 37.1491C152.011 36.8318 152.604 36.6731 153.257 36.6731ZM153.215 43.4631C153.775 43.4631 154.279 43.3324 154.727 43.0711C155.175 42.8098 155.525 42.4458 155.777 41.9791C156.039 41.5124 156.169 40.9804 156.169 40.3831C156.169 39.7858 156.039 39.2538 155.777 38.7871C155.525 38.3204 155.175 37.9564 154.727 37.6951C154.279 37.4338 153.775 37.3031 153.215 37.3031C152.655 37.3031 152.151 37.4338 151.703 37.6951C151.265 37.9564 150.915 38.3204 150.653 38.7871C150.401 39.2538 150.275 39.7858 150.275 40.3831C150.275 40.9804 150.401 41.5124 150.653 41.9791C150.915 42.4458 151.265 42.8098 151.703 43.0711C152.151 43.3324 152.655 43.4631 153.215 43.4631ZM160.941 44.0931C160.325 44.0931 159.853 43.9204 159.527 43.5751C159.2 43.2204 159.037 42.7351 159.037 42.1191V33.6491H159.737V42.0351C159.737 42.5111 159.844 42.8751 160.059 43.1271C160.273 43.3698 160.595 43.4911 161.025 43.4911C161.267 43.4911 161.501 43.4444 161.725 43.3511L161.781 43.9391C161.519 44.0418 161.239 44.0931 160.941 44.0931ZM169.605 36.7291V43.2531C169.605 44.4664 169.334 45.3624 168.793 45.9411C168.251 46.5198 167.435 46.8091 166.343 46.8091C165.717 46.8091 165.129 46.7064 164.579 46.5011C164.028 46.2958 163.585 46.0111 163.249 45.6471L163.627 45.1151C163.953 45.4511 164.35 45.7124 164.817 45.8991C165.283 46.0858 165.783 46.1791 166.315 46.1791C167.201 46.1791 167.855 45.9458 168.275 45.4791C168.695 45.0218 168.905 44.3078 168.905 43.3371V42.2171C168.653 42.7024 168.289 43.0851 167.813 43.3651C167.346 43.6358 166.8 43.7711 166.175 43.7711C165.223 43.7711 164.476 43.5051 163.935 42.9731C163.393 42.4411 163.123 41.6758 163.123 40.6771V36.7291H163.823V40.6211C163.823 41.4424 164.033 42.0678 164.453 42.4971C164.873 42.9264 165.465 43.1411 166.231 43.1411C167.052 43.1411 167.701 42.8844 168.177 42.3711C168.662 41.8578 168.905 41.1671 168.905 40.2991V36.7291H169.605ZM178.072 44.0931C177.456 44.0931 176.984 43.9204 176.658 43.5751C176.331 43.2204 176.168 42.7351 176.168 42.1191V33.6491H176.868V42.0351C176.868 42.5111 176.975 42.8751 177.19 43.1271C177.404 43.3698 177.726 43.4911 178.156 43.4911C178.398 43.4911 178.632 43.4444 178.856 43.3511L178.912 43.9391C178.65 44.0418 178.37 44.0931 178.072 44.0931ZM183.197 43.4631C183.673 43.4631 184.111 43.3791 184.513 43.2111C184.923 43.0338 185.264 42.7771 185.535 42.4411L185.941 42.9031C185.623 43.2951 185.227 43.5938 184.751 43.7991C184.275 43.9951 183.752 44.0931 183.183 44.0931C182.455 44.0931 181.801 43.9344 181.223 43.6171C180.653 43.2998 180.205 42.8611 179.879 42.3011C179.561 41.7411 179.403 41.1018 179.403 40.3831C179.403 39.6644 179.552 39.0251 179.851 38.4651C180.159 37.9051 180.583 37.4664 181.125 37.1491C181.666 36.8318 182.277 36.6731 182.959 36.6731C183.593 36.6731 184.163 36.8224 184.667 37.1211C185.18 37.4104 185.586 37.8164 185.885 38.3391C186.193 38.8524 186.361 39.4311 186.389 40.0751L180.215 41.2791C180.392 41.9511 180.747 42.4831 181.279 42.8751C181.811 43.2671 182.45 43.4631 183.197 43.4631ZM182.959 37.2891C182.408 37.2891 181.913 37.4198 181.475 37.6811C181.036 37.9331 180.695 38.2924 180.453 38.7591C180.21 39.2164 180.089 39.7391 180.089 40.3271C180.089 40.4298 180.098 40.5744 180.117 40.7611L185.689 39.6691C185.623 39.2304 185.469 38.8291 185.227 38.4651C184.984 38.1011 184.667 37.8164 184.275 37.6111C183.883 37.3964 183.444 37.2891 182.959 37.2891ZM190.612 34.1951C189.698 34.1951 189.24 34.6851 189.24 35.6651V36.7291H191.578V37.3311H189.254V44.0371H188.554V35.6091C188.554 34.9931 188.727 34.5031 189.072 34.1391C189.427 33.7751 189.926 33.5931 190.57 33.5931C190.85 33.5931 191.121 33.6351 191.382 33.7191C191.644 33.7938 191.858 33.9104 192.026 34.0691L191.746 34.6011C191.448 34.3304 191.07 34.1951 190.612 34.1951ZM196.4 43.5751C196.222 43.7431 195.998 43.8738 195.728 43.9671C195.466 44.0511 195.191 44.0931 194.902 44.0931C194.267 44.0931 193.777 43.9204 193.432 43.5751C193.086 43.2204 192.914 42.7304 192.914 42.1051V35.1331H193.614V36.7291H195.938V37.3311H193.614V42.0351C193.614 42.5111 193.726 42.8751 193.95 43.1271C194.183 43.3698 194.524 43.4911 194.972 43.4911C195.429 43.4911 195.807 43.3558 196.106 43.0851L196.4 43.5751ZM205.607 36.6731C206.288 36.6731 206.904 36.8318 207.455 37.1491C208.006 37.4571 208.435 37.8958 208.743 38.4651C209.06 39.0251 209.219 39.6644 209.219 40.3831C209.219 41.1018 209.06 41.7411 208.743 42.3011C208.435 42.8611 208.006 43.2998 207.455 43.6171C206.904 43.9344 206.288 44.0931 205.607 44.0931C204.954 44.0931 204.361 43.9391 203.829 43.6311C203.306 43.3138 202.9 42.8751 202.611 42.3151V44.0371H201.939V33.6491H202.639V38.3951C202.928 37.8538 203.334 37.4338 203.857 37.1351C204.38 36.8271 204.963 36.6731 205.607 36.6731ZM205.565 43.4631C206.125 43.4631 206.629 43.3324 207.077 43.0711C207.525 42.8098 207.875 42.4458 208.127 41.9791C208.388 41.5124 208.519 40.9804 208.519 40.3831C208.519 39.7858 208.388 39.2538 208.127 38.7871C207.875 38.3204 207.525 37.9564 207.077 37.6951C206.629 37.4338 206.125 37.3031 205.565 37.3031C205.005 37.3031 204.501 37.4338 204.053 37.6951C203.614 37.9564 203.264 38.3204 203.003 38.7871C202.751 39.2538 202.625 39.7858 202.625 40.3831C202.625 40.9804 202.751 41.5124 203.003 41.9791C203.264 42.4458 203.614 42.8098 204.053 43.0711C204.501 43.3324 205.005 43.4631 205.565 43.4631ZM214.382 43.4631C214.858 43.4631 215.297 43.3791 215.698 43.2111C216.109 43.0338 216.45 42.7771 216.72 42.4411L217.126 42.9031C216.809 43.2951 216.412 43.5938 215.936 43.7991C215.46 43.9951 214.938 44.0931 214.368 44.0931C213.64 44.0931 212.987 43.9344 212.408 43.6171C211.839 43.2998 211.391 42.8611 211.064 42.3011C210.747 41.7411 210.588 41.1018 210.588 40.3831C210.588 39.6644 210.738 39.0251 211.036 38.4651C211.344 37.9051 211.769 37.4664 212.31 37.1491C212.852 36.8318 213.463 36.6731 214.144 36.6731C214.779 36.6731 215.348 36.8224 215.852 37.1211C216.366 37.4104 216.772 37.8164 217.07 38.3391C217.378 38.8524 217.546 39.4311 217.574 40.0751L211.4 41.2791C211.578 41.9511 211.932 42.4831 212.464 42.8751C212.996 43.2671 213.636 43.4631 214.382 43.4631ZM214.144 37.2891C213.594 37.2891 213.099 37.4198 212.66 37.6811C212.222 37.9331 211.881 38.2924 211.638 38.7591C211.396 39.2164 211.274 39.7391 211.274 40.3271C211.274 40.4298 211.284 40.5744 211.302 40.7611L216.874 39.6691C216.809 39.2304 216.655 38.8291 216.412 38.4651C216.17 38.1011 215.852 37.8164 215.46 37.6111C215.068 37.3964 214.63 37.2891 214.144 37.2891ZM223.31 36.6731C224.225 36.6731 224.948 36.9391 225.48 37.4711C226.012 38.0031 226.278 38.7684 226.278 39.7671V44.0371H225.578V39.8231C225.578 39.0018 225.368 38.3764 224.948 37.9471C224.537 37.5178 223.959 37.3031 223.212 37.3031C222.353 37.3031 221.677 37.5598 221.182 38.0731C220.687 38.5864 220.44 39.2771 220.44 40.1451V44.0371H219.74V33.6491H220.44V38.2551C220.692 37.7511 221.065 37.3638 221.56 37.0931C222.055 36.8131 222.638 36.6731 223.31 36.6731ZM229.16 36.7291H229.86V44.0371H229.16V36.7291ZM229.51 34.9511C229.351 34.9511 229.216 34.8998 229.104 34.7971C228.992 34.6851 228.936 34.5498 228.936 34.3911C228.936 34.2324 228.992 34.0971 229.104 33.9851C229.216 33.8731 229.351 33.8171 229.51 33.8171C229.668 33.8171 229.804 33.8731 229.916 33.9851C230.028 34.0878 230.084 34.2184 230.084 34.3771C230.084 34.5358 230.028 34.6711 229.916 34.7831C229.804 34.8951 229.668 34.9511 229.51 34.9511ZM236.38 36.6731C237.295 36.6731 238.018 36.9391 238.55 37.4711C239.082 38.0031 239.348 38.7684 239.348 39.7671V44.0371H238.648V39.8231C238.648 39.0018 238.438 38.3764 238.018 37.9471C237.608 37.5178 237.029 37.3031 236.282 37.3031C235.424 37.3031 234.747 37.5598 234.252 38.0731C233.758 38.5864 233.51 39.2771 233.51 40.1451V44.0371H232.81V36.7291H233.482V38.3111C233.734 37.7978 234.108 37.3964 234.602 37.1071C235.106 36.8178 235.699 36.6731 236.38 36.6731ZM248.74 33.6491V44.0371H248.054V42.3151C247.764 42.8844 247.358 43.3231 246.836 43.6311C246.313 43.9391 245.72 44.0931 245.058 44.0931C244.376 44.0931 243.76 43.9344 243.21 43.6171C242.659 43.2998 242.225 42.8611 241.908 42.3011C241.6 41.7411 241.446 41.1018 241.446 40.3831C241.446 39.6644 241.6 39.0251 241.908 38.4651C242.225 37.8958 242.659 37.4571 243.21 37.1491C243.76 36.8318 244.376 36.6731 245.058 36.6731C245.711 36.6731 246.294 36.8271 246.808 37.1351C247.33 37.4431 247.741 37.8724 248.04 38.4231V33.6491H248.74ZM245.1 43.4631C245.66 43.4631 246.159 43.3324 246.598 43.0711C247.046 42.8098 247.396 42.4458 247.648 41.9791C247.909 41.5124 248.04 40.9804 248.04 40.3831C248.04 39.7858 247.909 39.2538 247.648 38.7871C247.396 38.3204 247.046 37.9564 246.598 37.6951C246.159 37.4338 245.66 37.3031 245.1 37.3031C244.54 37.3031 244.036 37.4338 243.588 37.6951C243.149 37.9564 242.799 38.3204 242.538 38.7871C242.286 39.2538 242.16 39.7858 242.16 40.3831C242.16 40.9804 242.286 41.5124 242.538 41.9791C242.799 42.4458 243.149 42.8098 243.588 43.0711C244.036 43.3324 244.54 43.4631 245.1 43.4631Z" fill="black"/>
<defs>
<linearGradient id="paint0_linear_267_77" x1="64.9863" y1="24" x2="64.9863" y2="94.0371" gradientUnits="userSpaceOnUse">
<stop stop-color="#A2D5C6"/>
<stop offset="1" stop-color="#546F67"/>
</linearGradient>
<linearGradient id="paint1_linear_267_77" x1="64.9863" y1="24" x2="64.9863" y2="94.0371" gradientUnits="userSpaceOnUse">
<stop stop-color="#A2D5C6"/>
<stop offset="1" stop-color="#546F67"/>
</linearGradient>
<linearGradient id="paint2_linear_267_77" x1="64.9863" y1="24" x2="64.9863" y2="94.0371" gradientUnits="userSpaceOnUse">
<stop stop-color="#A2D5C6"/>
<stop offset="1" stop-color="#546F67"/>
</linearGradient>
<linearGradient id="paint3_linear_267_77" x1="105.973" y1="76.0371" x2="317.973" y2="76.0371" gradientUnits="userSpaceOnUse">
<stop stop-color="#546F67"/>
<stop offset="1" stop-color="#A2D5C6"/>
</linearGradient>
</defs>
</svg>
