<?xml version="1.0" encoding="utf-8"?>
<svg xmlns="http://www.w3.org/2000/svg" viewBox="0 0 2458 512" xmlns:bx="https://boxy-svg.com" width="2458px" height="512px"><defs><linearGradient id="paint0_linear_267_77" x1="64.9863" y1="24" x2="64.9863" y2="94.0371" gradientUnits="userSpaceOnUse" gradientTransform="matrix(8.448682, 0, 0, 7.088945, -208.419234, -163.855545)"><stop stop-color="#A2D5C6"/><stop offset="1" stop-color="#546F67"/></linearGradient><linearGradient id="paint1_linear_267_77" x1="64.9863" y1="24" x2="64.9863" y2="94.0371" gradientUnits="userSpaceOnUse" gradientTransform="matrix(8.448682, 0, 0, 7.088945, -208.419234, -163.855545)"><stop stop-color="#A2D5C6"/><stop offset="1" stop-color="#546F67"/></linearGradient><linearGradient id="paint2_linear_267_77" x1="64.9863" y1="24" x2="64.9863" y2="94.0371" gradientUnits="userSpaceOnUse" gradientTransform="matrix(8.448682, 0, 0, 7.088945, -208.419234, -163.855545)"><stop stop-color="#A2D5C6"/><stop offset="1" stop-color="#546F67"/></linearGradient><linearGradient id="paint3_linear_267_77" x1="105.973" y1="76.0371" x2="317.973" y2="76.0371" gradientUnits="userSpaceOnUse" gradientTransform="matrix(8.448682, 0, 0, 7.088945, -208.419234, -163.855545)"><stop stop-color="#546F67"/><stop offset="1" stop-color="#A2D5C6"/></linearGradient><bx:export><bx:file format="svg" href="#object-0"/><bx:file format="svg" href="#object-1" path="Untitled 2.svg"/><bx:file format="svg" href="#object-2" path="Untitled 3.svg"/><bx:file format="svg" href="#object-3" path="Untitled 4.svg"/><bx:file format="svg" href="#object-4" path="Untitled 5.svg"/><bx:file format="svg" path="Untitled 6.svg"/></bx:export></defs><path d="M 214.016 250.845 C 214.016 282.172 183.751 307.556 146.423 307.556 C 109.098 307.556 78.837 282.172 78.837 250.845 C 78.837 219.527 109.098 194.135 146.423 194.135 C 183.751 194.135 214.016 219.527 214.016 250.845 Z" fill="url(#paint0_linear_267_77)" style="stroke-width: 1px;" id="object-0"/><path fill-rule="evenodd" clip-rule="evenodd" d="M 315.398 6.277 C 455.647 6.277 574.325 79.592 613.922 180.558 C 586.501 148.084 540.6 126.789 488.597 126.789 C 404.608 126.789 336.519 182.332 336.519 250.845 C 336.519 272.715 343.458 293.265 355.634 311.101 L 279.254 311.101 C 291.512 293.216 298.502 272.601 298.502 250.655 C 298.502 182.139 230.413 126.597 146.423 126.597 C 88.998 126.597 39.007 152.557 13.128 190.881 C 48.48 84.624 170.412 6.277 315.398 6.277 Z M 488.597 374.903 C 543.582 374.903 591.746 351.104 618.464 315.44 C 607.165 350.835 586.291 383.196 558.146 410.694 L 560.639 410.71 L 686.913 502.766 L 342.63 501.553 C 333.647 502.163 324.574 502.503 315.398 502.503 C 164.1 502.503 37.912 417.195 9.014 303.872 C 31.929 343.178 79.447 371.095 135.324 374.385 C 137.553 374.726 139.851 374.903 142.202 374.903 L 488.597 374.903 Z M 214.016 250.845 C 214.016 282.172 183.751 307.556 146.423 307.556 C 109.098 307.556 78.837 282.172 78.837 250.845 C 78.837 219.527 109.098 194.135 146.423 194.135 C 183.751 194.135 214.016 219.527 214.016 250.845 Z" fill="url(#paint1_linear_267_77)" style="stroke-width: 1px;" id="object-1"/><path fill-rule="evenodd" clip-rule="evenodd" d="M 484.373 307.556 C 521.698 307.556 551.963 282.172 551.963 250.845 C 551.963 219.527 521.698 194.135 484.373 194.135 C 447.045 194.135 416.784 219.527 416.784 250.845 C 416.784 282.172 447.045 307.556 484.373 307.556 Z" fill="url(#paint2_linear_267_77)" style="stroke-width: 1px;" id="object-2"/><path d="M 861.222 241.112 C 889.546 241.112 914.227 245.771 935.248 255.078 C 956.261 264.393 972.623 278.11 984.3 296.236 C 995.977 314.37 1001.82 336.295 1001.82 362.021 L 1001.82 502.766 L 930.87 502.766 L 930.87 441.028 L 790.715 441.028 L 790.715 502.766 L 720.631 502.766 L 720.631 362.021 C 720.631 336.295 726.479 314.37 738.152 296.236 C 749.829 278.11 766.183 264.393 787.204 255.078 C 808.228 245.771 832.902 241.112 861.222 241.112 Z M 930.87 393.256 L 930.87 356.506 C 930.87 335.191 924.581 319.147 912.03 308.366 C 899.471 297.342 882.396 291.827 860.787 291.827 C 838.885 291.827 821.661 297.342 809.106 308.366 C 796.84 319.147 790.715 335.191 790.715 356.506 L 790.715 393.256 L 930.87 393.256 Z M 1071.85 245.522 L 1211.13 245.522 C 1244.42 245.522 1273.76 250.916 1299.16 261.692 C 1324.86 272.226 1344.71 287.176 1358.73 306.53 C 1373.03 325.882 1380.19 348.425 1380.19 374.144 C 1380.19 399.869 1373.03 422.412 1358.73 441.765 C 1344.71 461.118 1324.86 476.189 1299.16 486.964 C 1273.76 497.498 1244.42 502.766 1211.13 502.766 L 1071.85 502.766 L 1071.85 245.522 Z M 1207.62 453.894 C 1238.28 453.894 1262.67 446.785 1280.76 432.578 C 1299.16 418.123 1308.35 398.642 1308.35 374.144 C 1308.35 349.644 1299.16 330.292 1280.76 316.085 C 1262.67 301.631 1238.28 294.4 1207.62 294.4 L 1142.8 294.4 L 1142.8 453.894 L 1207.62 453.894 Z M 1433.7 245.522 L 1572.97 245.522 C 1606.26 245.522 1635.61 250.916 1661 261.692 C 1686.7 272.226 1706.56 287.176 1720.58 306.53 C 1734.88 325.882 1742.04 348.425 1742.04 374.144 C 1742.04 399.869 1734.88 422.412 1720.58 441.765 C 1706.56 461.118 1686.7 476.189 1661 486.964 C 1635.61 497.498 1606.26 502.766 1572.97 502.766 L 1433.7 502.766 L 1433.7 245.522 Z M 1569.47 453.894 C 1600.13 453.894 1624.51 446.785 1642.61 432.578 C 1661 418.123 1670.2 398.642 1670.2 374.144 C 1670.2 349.644 1661 330.292 1642.61 316.085 C 1624.51 301.631 1600.13 294.4 1569.47 294.4 L 1504.65 294.4 L 1504.65 453.894 L 1569.47 453.894 Z M 1933.51 241.112 C 1961.83 241.112 1986.5 245.771 2007.53 255.078 C 2028.55 264.393 2044.89 278.11 2056.58 296.236 C 2068.25 314.37 2074.1 336.295 2074.1 362.021 L 2074.1 502.766 L 2003.14 502.766 L 2003.14 441.028 L 1862.99 441.028 L 1862.99 502.766 L 1792.91 502.766 L 1792.91 362.021 C 1792.91 336.295 1798.75 314.37 1810.43 296.236 C 1822.11 278.11 1838.47 264.393 1859.49 255.078 C 1880.51 245.771 1905.19 241.112 1933.51 241.112 Z M 2003.14 393.256 L 2003.14 356.506 C 2003.14 335.191 1996.86 319.147 1984.31 308.366 C 1971.76 297.342 1954.67 291.827 1933.07 291.827 C 1911.17 291.827 1893.94 297.342 1881.39 308.366 C 1869.12 319.147 1862.99 335.191 1862.99 356.506 L 1862.99 393.256 L 2003.14 393.256 Z M 2144.13 245.522 L 2283.41 245.522 C 2316.7 245.522 2346.04 250.916 2371.44 261.692 C 2397.14 272.226 2416.99 287.176 2431.01 306.53 C 2445.31 325.882 2452.47 348.425 2452.47 374.144 C 2452.47 399.869 2445.31 422.412 2431.01 441.765 C 2416.99 461.118 2397.14 476.189 2371.44 486.964 C 2346.04 497.498 2316.7 502.766 2283.41 502.766 L 2144.13 502.766 L 2144.13 245.522 Z M 2279.91 453.894 C 2310.57 453.894 2334.94 446.785 2353.04 432.578 C 2371.44 418.123 2380.64 398.642 2380.64 374.144 C 2380.64 349.644 2371.44 330.292 2353.04 316.085 C 2334.94 301.631 2310.57 294.4 2279.91 294.4 L 2215.08 294.4 L 2215.08 453.894 L 2279.91 453.894 Z" fill="url(#paint3_linear_267_77)" style="stroke-width: 1px;" id="object-3"/><path d="M 778.242 78.351 C 788.178 78.351 795.945 80.803 801.546 85.695 C 807.14 90.593 809.944 97.604 809.944 106.734 L 809.944 148.318 L 803.908 148.318 L 803.908 106.933 C 803.908 99.129 801.578 93.209 796.93 89.168 C 792.274 85.071 785.695 83.015 777.175 83.015 C 768.424 83.015 761.642 85.17 756.836 89.466 C 752.02 93.769 749.619 100.184 749.619 108.72 L 749.619 148.318 L 743.586 148.318 L 743.586 78.846 L 749.501 78.846 L 749.501 92.245 C 752.02 87.615 755.726 84.142 760.618 81.824 C 765.502 79.513 771.385 78.351 778.242 78.351 Z M 860.305 148.714 C 854.476 148.714 849.189 147.594 844.454 145.341 C 839.809 143.094 836.142 139.981 833.455 136.011 C 830.776 131.978 829.434 127.448 829.434 122.415 C 829.434 117.389 830.776 112.887 833.455 108.917 C 836.142 104.885 839.809 101.744 844.454 99.49 C 849.189 97.243 854.476 96.115 860.305 96.115 C 866.142 96.115 871.39 97.243 876.035 99.49 C 880.766 101.744 884.476 104.885 887.156 108.917 C 889.842 112.887 891.177 117.389 891.177 122.415 C 891.177 127.448 889.842 131.978 887.156 136.011 C 884.476 139.981 880.766 143.094 876.035 145.341 C 871.39 147.594 866.142 148.714 860.305 148.714 Z M 860.305 144.25 C 865.033 144.25 869.26 143.328 872.96 141.47 C 876.745 139.62 879.706 137.039 881.829 133.729 C 884.045 130.425 885.144 126.655 885.144 122.415 C 885.144 118.183 884.045 114.412 881.829 111.101 C 879.706 107.798 876.745 105.218 872.96 103.36 C 869.26 101.509 865.033 100.582 860.305 100.582 C 855.571 100.582 851.319 101.509 847.533 103.36 C 843.83 105.218 840.872 107.798 838.66 111.101 C 836.531 114.412 835.467 118.183 835.467 122.415 C 835.467 126.655 836.531 130.425 838.66 133.729 C 840.872 137.039 843.83 139.62 847.533 141.47 C 851.319 143.328 855.571 144.25 860.305 144.25 Z M 945.583 107.826 C 947.478 104.054 950.436 101.176 954.456 99.192 C 958.477 97.143 963.361 96.115 969.123 96.115 L 969.123 100.979 L 967.703 100.879 C 960.846 100.879 955.48 102.701 951.62 106.337 C 947.749 109.91 945.822 114.908 945.822 121.324 L 945.822 148.318 L 939.907 148.318 L 939.907 96.512 L 945.583 96.512 L 945.583 107.826 Z M 1010.15 144.25 C 1014.17 144.25 1017.88 143.653 1021.27 142.463 C 1024.74 141.208 1027.62 139.387 1029.9 137.004 L 1033.33 140.279 C 1030.65 143.059 1027.3 145.178 1023.28 146.63 C 1019.26 148.02 1014.84 148.714 1010.03 148.714 C 1003.88 148.714 998.367 147.594 993.472 145.341 C 988.667 143.094 984.881 139.981 982.12 136.011 C 979.441 132.042 978.099 127.512 978.099 122.415 C 978.099 117.325 979.359 112.789 981.881 108.818 C 984.482 104.848 988.074 101.744 992.648 99.49 C 997.218 97.243 1002.38 96.115 1008.14 96.115 C 1013.5 96.115 1018.31 97.178 1022.57 99.291 C 1026.9 101.347 1030.34 104.225 1032.86 107.926 C 1035.46 111.569 1036.88 115.667 1037.12 120.232 L 984.956 128.767 C 986.455 133.53 989.451 137.303 993.943 140.08 C 998.438 142.859 1003.84 144.25 1010.15 144.25 Z M 1008.14 100.482 C 1003.48 100.482 999.312 101.411 995.599 103.261 C 991.892 105.048 989.02 107.6 986.972 110.903 C 984.913 114.15 983.889 117.85 983.889 122.018 C 983.889 122.748 983.968 123.776 984.129 125.095 L 1031.2 117.354 C 1030.65 114.248 1029.36 111.398 1027.3 108.818 C 1025.25 106.238 1022.57 104.225 1019.26 102.765 C 1015.95 101.248 1012.24 100.482 1008.14 100.482 Z M 1086.4 96.115 C 1092.16 96.115 1097.37 97.243 1102.02 99.49 C 1106.67 101.744 1110.3 104.848 1112.9 108.818 C 1115.58 112.789 1116.91 117.325 1116.91 122.415 C 1116.91 127.512 1115.58 132.078 1112.9 136.112 C 1110.3 140.08 1106.67 143.192 1102.02 145.439 C 1097.37 147.623 1092.16 148.714 1086.4 148.714 C 1080.96 148.714 1076.04 147.658 1071.62 145.54 C 1067.2 143.355 1063.77 140.35 1061.32 136.509 L 1061.32 167.571 L 1055.41 167.571 L 1055.41 96.512 L 1061.09 96.512 L 1061.09 108.72 C 1063.54 104.75 1066.97 101.674 1071.38 99.49 C 1075.88 97.243 1080.88 96.115 1086.4 96.115 Z M 1086.05 144.25 C 1090.78 144.25 1095.04 143.328 1098.82 141.47 C 1102.61 139.62 1105.56 137.039 1107.69 133.729 C 1109.9 130.425 1111.01 126.655 1111.01 122.415 C 1111.01 118.183 1109.9 114.412 1107.69 111.101 C 1105.56 107.798 1102.61 105.218 1098.82 103.36 C 1095.04 101.509 1090.78 100.582 1086.05 100.582 C 1081.31 100.582 1077.06 101.509 1073.27 103.36 C 1069.57 105.218 1066.61 107.798 1064.4 111.101 C 1062.27 114.412 1061.2 118.183 1061.2 122.415 C 1061.2 126.655 1062.27 130.425 1064.4 133.729 C 1066.61 137.039 1069.57 139.62 1073.27 141.47 C 1077.06 143.328 1081.31 144.25 1086.05 144.25 Z M 1151.32 148.714 C 1146.12 148.714 1142.13 147.496 1139.38 145.042 C 1136.61 142.533 1135.23 139.089 1135.23 134.722 L 1135.23 74.679 L 1141.14 74.679 L 1141.14 134.126 C 1141.14 137.5 1142.05 140.08 1143.87 141.867 C 1145.67 143.589 1148.4 144.448 1152.03 144.448 C 1154.07 144.448 1156.05 144.122 1157.94 143.456 L 1158.42 147.623 C 1156.2 148.353 1153.84 148.714 1151.32 148.714 Z M 1224.52 96.512 L 1224.52 142.761 C 1224.52 151.366 1222.23 157.719 1217.66 161.816 C 1213.08 165.92 1206.18 167.969 1196.96 167.969 C 1191.67 167.969 1186.7 167.246 1182.06 165.785 C 1177.4 164.333 1173.66 162.312 1170.82 159.731 L 1174.01 155.96 C 1176.77 158.342 1180.12 160.199 1184.06 161.519 C 1188 162.844 1192.23 163.503 1196.72 163.503 C 1204.21 163.503 1209.73 161.852 1213.28 158.541 C 1216.83 155.3 1218.6 150.239 1218.6 143.355 L 1218.6 135.417 C 1216.48 138.861 1213.4 141.57 1209.38 143.555 C 1205.43 145.475 1200.82 146.433 1195.54 146.433 C 1187.5 146.433 1181.18 144.547 1176.62 140.775 C 1172.04 137.004 1169.75 131.581 1169.75 124.5 L 1169.75 96.512 L 1175.67 96.512 L 1175.67 124.103 C 1175.67 129.93 1177.44 134.361 1180.99 137.401 C 1184.54 140.45 1189.54 141.967 1196.02 141.967 C 1202.95 141.967 1208.43 140.152 1212.45 136.509 C 1216.56 132.872 1218.6 127.973 1218.6 121.82 L 1218.6 96.512 L 1224.52 96.512 Z M 1296.06 148.714 C 1290.85 148.714 1286.86 147.496 1284.11 145.042 C 1281.34 142.533 1279.97 139.089 1279.97 134.722 L 1279.97 74.679 L 1285.88 74.679 L 1285.88 134.126 C 1285.88 137.5 1286.79 140.08 1288.6 141.867 C 1290.41 143.589 1293.13 144.448 1296.76 144.448 C 1298.81 144.448 1300.78 144.122 1302.68 143.456 L 1303.15 147.623 C 1300.94 148.353 1298.57 148.714 1296.06 148.714 Z M 1339.35 144.25 C 1343.38 144.25 1347.08 143.653 1350.47 142.463 C 1353.93 141.208 1356.82 139.387 1359.1 137.004 L 1362.54 140.279 C 1359.85 143.059 1356.51 145.178 1352.48 146.63 C 1348.46 148.02 1344.04 148.714 1339.24 148.714 C 1333.08 148.714 1327.56 147.594 1322.67 145.341 C 1317.86 143.094 1314.07 139.981 1311.32 136.011 C 1308.63 132.042 1307.3 127.512 1307.3 122.415 C 1307.3 117.325 1308.55 112.789 1311.08 108.818 C 1313.68 104.848 1317.27 101.744 1321.85 99.49 C 1326.41 97.243 1331.58 96.115 1337.35 96.115 C 1342.7 96.115 1347.51 97.178 1351.77 99.291 C 1356.11 101.347 1359.54 104.225 1362.07 107.926 C 1364.67 111.569 1366.09 115.667 1366.32 120.232 L 1314.16 128.767 C 1315.66 133.53 1318.65 137.303 1323.15 140.08 C 1327.64 142.859 1333.04 144.25 1339.35 144.25 Z M 1337.35 100.482 C 1332.69 100.482 1328.51 101.411 1324.8 103.261 C 1321.1 105.048 1318.21 107.6 1316.17 110.903 C 1314.12 114.15 1313.09 117.85 1313.09 122.018 C 1313.09 122.748 1313.17 123.776 1313.33 125.095 L 1360.41 117.354 C 1359.85 114.248 1358.55 111.398 1356.51 108.818 C 1354.45 106.238 1351.77 104.225 1348.46 102.765 C 1345.15 101.248 1341.44 100.482 1337.35 100.482 Z M 1402 78.549 C 1394.28 78.549 1390.41 82.024 1390.41 88.97 L 1390.41 96.512 L 1410.16 96.512 L 1410.16 100.779 L 1390.53 100.779 L 1390.53 148.318 L 1384.61 148.318 L 1384.61 88.574 C 1384.61 84.207 1386.08 80.732 1388.99 78.152 C 1391.99 75.571 1396.21 74.282 1401.65 74.282 C 1404.01 74.282 1406.3 74.579 1408.51 75.174 C 1410.72 75.706 1412.53 76.535 1413.95 77.655 L 1411.58 81.427 C 1409.06 79.513 1405.87 78.549 1402 78.549 Z M 1450.9 145.042 C 1449.4 146.233 1447.5 147.163 1445.22 147.822 C 1443.01 148.417 1440.69 148.714 1438.25 148.714 C 1432.88 148.714 1428.74 147.496 1425.82 145.042 C 1422.9 142.533 1421.45 139.06 1421.45 134.623 L 1421.45 85.198 L 1427.37 85.198 L 1427.37 96.512 L 1447 96.512 L 1447 100.779 L 1427.37 100.779 L 1427.37 134.126 C 1427.37 137.5 1428.31 140.08 1430.2 141.867 C 1432.17 143.589 1435.05 144.448 1438.84 144.448 C 1442.7 144.448 1445.89 143.491 1448.42 141.57 L 1450.9 145.042 Z M 1528.69 96.115 C 1534.44 96.115 1539.65 97.243 1544.3 99.49 C 1548.96 101.674 1552.58 104.784 1555.18 108.818 C 1557.86 112.789 1559.2 117.325 1559.2 122.415 C 1559.2 127.512 1557.86 132.042 1555.18 136.011 C 1552.58 139.981 1548.96 143.094 1544.3 145.341 C 1539.65 147.594 1534.44 148.714 1528.69 148.714 C 1523.17 148.714 1518.16 147.623 1513.66 145.439 C 1509.25 143.192 1505.82 140.08 1503.38 136.112 L 1503.38 148.318 L 1497.7 148.318 L 1497.7 74.679 L 1503.61 74.679 L 1503.61 108.323 C 1506.05 104.487 1509.48 101.509 1513.9 99.39 C 1518.33 97.207 1523.25 96.115 1528.69 96.115 Z M 1528.34 144.25 C 1533.06 144.25 1537.32 143.328 1541.11 141.47 C 1544.89 139.62 1547.85 137.039 1549.98 133.729 C 1552.19 130.425 1553.29 126.655 1553.29 122.415 C 1553.29 118.183 1552.19 114.412 1549.98 111.101 C 1547.85 107.798 1544.89 105.218 1541.11 103.36 C 1537.32 101.509 1533.06 100.582 1528.34 100.582 C 1523.6 100.582 1519.35 101.509 1515.56 103.36 C 1511.85 105.218 1508.89 107.798 1506.69 111.101 C 1504.56 114.412 1503.49 118.183 1503.49 122.415 C 1503.49 126.655 1504.56 130.425 1506.69 133.729 C 1508.89 137.039 1511.85 139.62 1515.56 141.47 C 1519.35 143.328 1523.6 144.25 1528.34 144.25 Z M 1602.83 144.25 C 1606.85 144.25 1610.56 143.653 1613.94 142.463 C 1617.42 141.208 1620.3 139.387 1622.58 137.004 L 1626.01 140.279 C 1623.33 143.059 1619.98 145.178 1615.95 146.63 C 1611.93 148.02 1607.52 148.714 1602.71 148.714 C 1596.55 148.714 1591.04 147.594 1586.15 145.341 C 1581.34 143.094 1577.55 139.981 1574.79 136.011 C 1572.11 132.042 1570.77 127.512 1570.77 122.415 C 1570.77 117.325 1572.04 112.789 1574.56 108.818 C 1577.16 104.848 1580.75 101.744 1585.32 99.49 C 1589.9 97.243 1595.06 96.115 1600.81 96.115 C 1606.18 96.115 1610.98 97.178 1615.24 99.291 C 1619.59 101.347 1623.02 104.225 1625.54 107.926 C 1628.14 111.569 1629.56 115.667 1629.79 120.232 L 1577.63 128.767 C 1579.13 133.53 1582.13 137.303 1586.62 140.08 C 1591.12 142.859 1596.52 144.25 1602.83 144.25 Z M 1600.81 100.482 C 1596.17 100.482 1591.99 101.411 1588.28 103.261 C 1584.58 105.048 1581.7 107.6 1579.64 110.903 C 1577.6 114.15 1576.56 117.85 1576.56 122.018 C 1576.56 122.748 1576.65 123.776 1576.8 125.095 L 1623.88 117.354 C 1623.33 114.248 1622.03 111.398 1619.98 108.818 C 1617.93 106.238 1615.24 104.225 1611.93 102.765 C 1608.62 101.248 1604.92 100.482 1600.81 100.482 Z M 1678.25 96.115 C 1685.98 96.115 1692.09 98.001 1696.59 101.773 C 1701.08 105.543 1703.33 110.973 1703.33 118.049 L 1703.33 148.318 L 1697.42 148.318 L 1697.42 118.445 C 1697.42 112.626 1695.64 108.195 1692.09 105.146 C 1688.62 102.106 1683.74 100.582 1677.43 100.582 C 1670.17 100.582 1664.46 102.404 1660.28 106.04 C 1656.1 109.684 1654.01 114.575 1654.01 120.728 L 1654.01 148.318 L 1648.09 148.318 L 1648.09 74.679 L 1654.01 74.679 L 1654.01 107.329 C 1656.14 103.757 1659.29 101.014 1663.47 99.092 C 1667.65 97.107 1672.58 96.115 1678.25 96.115 Z M 1727.68 96.512 L 1733.6 96.512 L 1733.6 148.318 L 1727.68 148.318 L 1727.68 96.512 Z M 1730.64 83.907 C 1729.29 83.907 1728.15 83.547 1727.21 82.816 C 1726.26 82.024 1725.79 81.065 1725.79 79.937 C 1725.79 78.818 1726.26 77.854 1727.21 77.06 C 1728.15 76.266 1729.29 75.869 1730.64 75.869 C 1731.97 75.869 1733.12 76.266 1734.07 77.06 C 1735.02 77.79 1735.49 78.718 1735.49 79.838 C 1735.49 80.965 1735.02 81.923 1734.07 82.717 C 1733.12 83.51 1731.97 83.907 1730.64 83.907 Z M 1788.68 96.115 C 1796.41 96.115 1802.52 98.001 1807.01 101.773 C 1811.51 105.543 1813.76 110.973 1813.76 118.049 L 1813.76 148.318 L 1807.84 148.318 L 1807.84 118.445 C 1807.84 112.626 1806.07 108.195 1802.52 105.146 C 1799.06 102.106 1794.16 100.582 1787.85 100.582 C 1780.61 100.582 1774.88 102.404 1770.7 106.04 C 1766.53 109.684 1764.43 114.575 1764.43 120.728 L 1764.43 148.318 L 1758.52 148.318 L 1758.52 96.512 L 1764.2 96.512 L 1764.2 107.726 C 1766.33 104.09 1769.49 101.248 1773.66 99.192 C 1777.92 97.143 1782.93 96.115 1788.68 96.115 Z M 1893.11 74.679 L 1893.11 148.318 L 1887.31 148.318 L 1887.31 136.112 C 1884.86 140.152 1881.43 143.256 1877.02 145.439 C 1872.6 147.623 1867.59 148.714 1862 148.714 C 1856.24 148.714 1851.03 147.594 1846.38 145.341 C 1841.73 143.094 1838.06 139.981 1835.38 136.011 C 1832.78 132.042 1831.48 127.512 1831.48 122.415 C 1831.48 117.325 1832.78 112.789 1835.38 108.818 C 1838.06 104.784 1841.73 101.674 1846.38 99.49 C 1851.03 97.243 1856.24 96.115 1862 96.115 C 1867.52 96.115 1872.44 97.207 1876.78 99.39 C 1881.19 101.573 1884.67 104.622 1887.19 108.52 L 1887.19 74.679 L 1893.11 74.679 Z M 1862.35 144.25 C 1867.08 144.25 1871.3 143.328 1875.01 141.47 C 1878.79 139.62 1881.75 137.039 1883.88 133.729 C 1886.08 130.425 1887.19 126.655 1887.19 122.415 C 1887.19 118.183 1886.08 114.412 1883.88 111.101 C 1881.75 107.798 1878.79 105.218 1875.01 103.36 C 1871.3 101.509 1867.08 100.582 1862.35 100.582 C 1857.62 100.582 1853.37 101.509 1849.58 103.36 C 1845.87 105.218 1842.91 107.798 1840.71 111.101 C 1838.58 114.412 1837.51 118.183 1837.51 122.415 C 1837.51 126.655 1838.58 130.425 1840.71 133.729 C 1842.91 137.039 1845.87 139.62 1849.58 141.47 C 1853.37 143.328 1857.62 144.25 1862.35 144.25 Z" fill="#EDEDED" style="stroke-width: 1px;" id="object-4"/></svg>